SplineFontDB: 3.2
FontName: OregonBound
FullName: Oregon Bound Regular
FamilyName: Oregon Bound
Weight: Regular
Copyright: Copyright John H. Isles 2022
Version: 1.0
ItalicAngle: 0
UnderlinePosition: 150
UnderlineWidth: 100
Ascent: 800
Descent: 200
InvalidEm: 0
sfntRevision: 0x00010000
LayerCount: 2
Layer: 0 0 "Back" 1
Layer: 1 0 "Fore" 0
XUID: [1021 586 141178028 8754494]
StyleMap: 0x0040
FSType: 4
OS2Version: 2
OS2_WeightWidthSlopeOnly: 0
OS2_UseTypoMetrics: 0
CreationTime: 1745797743
ModificationTime: 1767732684
PfmFamily: 81
TTFWeight: 400
TTFWidth: 5
LineGap: 0
VLineGap: 0
Panose: 0 0 4 0 0 0 0 0 0 0
OS2TypoAscent: 1750
OS2TypoAOffset: 0
OS2TypoDescent: -250
OS2TypoDOffset: 0
OS2TypoLinegap: 0
OS2WinAscent: 2000
OS2WinAOffset: 0
OS2WinDescent: 250
OS2WinDOffset: 0
HheadAscent: 2000
HheadAOffset: 0
HheadDescent: -250
HheadDOffset: 0
OS2SubXSize: 1000
OS2SubYSize: 1000
OS2SubXOff: 0
OS2SubYOff: -125
OS2SupXSize: 1000
OS2SupYSize: 1000
OS2SupXOff: 0
OS2SupYOff: 1000
OS2StrikeYSize: 100
OS2StrikeYPos: 400
OS2CapHeight: 1750
OS2XHeight: 1250
OS2Vendor: 'FSTR'
OS2CodePages: 200101ff.cdff0000
OS2UnicodeRanges: 00000001.00000000.00000000.00000000
DEI: 91125
LangName: 1033 "" "" "" "Oregon Bound" "" "Version 1.0" "" "FontStruct is a trademark of FontStruct.com" "https://fontstruct.com" "John H. Isles" "+IBwA-Oregon Bound+IB0A was built with FontStruct+AAoA-Designer description: <p>Westward ho!&nbsp; This is a recreation of the font used in the PC version of the classic game, 'The Oregon Trail'.&nbsp;&nbsp;</p>+AAoA" "https://fontstruct.com/fontstructions/show/2204624/oregon-bound" "https://fontstruct.com/fontstructors/show/202044/qxz" "Creative Commons Attribution Non-commercial No Derivatives" "http://creativecommons.org/licenses/by-nc-nd/3.0/" "" "" "" "" "Five big quacking zephyrs jolt my wax bed"
Encoding: UnicodeBmp
UnicodeInterp: none
NameList: AGL For New Fonts
DisplaySize: -48
AntiAlias: 1
FitToEm: 0
WinInfo: 50 25 6
BeginChars: 65537 104

StartChar: .notdef
Encoding: 65536 -1 0
Width: 1596
GlyphClass: 1
Flags: W
LayerCount: 2
Fore
SplineSet
1277 50 m 1
 69 50 l 1
 673 856 l 1
 1277 50 l 1
50 69 m 1
 50 1681 l 1
 654 875 l 1
 50 69 l 1
1296 69 m 1
 692 875 l 1
 1296 1681 l 1
 1296 69 l 1
673 894 m 1
 69 1700 l 1
 1277 1700 l 1
 673 894 l 1
0 0 m 1
 1346 0 l 1
 1346 1750 l 1
 0 1750 l 1
 0 0 l 1
EndSplineSet
EndChar

StartChar: exclam
Encoding: 33 33 2
Width: 2000
GlyphClass: 1
Flags: W
LayerCount: 2
Fore
SplineSet
1250 0 m 1
 1750 0 l 1
 1750 250 l 1
 1250 250 l 1
 1250 0 l 1
1250 500 m 1
 1750 500 l 1
 1750 1000 l 1
 2000 1000 l 1
 2000 1500 l 1
 1750 1500 l 1
 1750 1750 l 1
 1250 1750 l 1
 1250 1500 l 1
 1000 1500 l 1
 1000 1000 l 1
 1250 1000 l 1
 1250 500 l 1
EndSplineSet
EndChar

StartChar: quotedbl
Encoding: 34 34 3
Width: 2000
GlyphClass: 1
Flags: W
LayerCount: 2
Fore
SplineSet
500 1000 m 1
 1000 1000 l 1
 1000 1750 l 1
 500 1750 l 1
 500 1000 l 1
1250 1000 m 1
 1750 1000 l 1
 1750 1750 l 1
 1250 1750 l 1
 1250 1000 l 1
EndSplineSet
EndChar

StartChar: numbersign
Encoding: 35 35 4
Width: 2000
GlyphClass: 1
Flags: W
LayerCount: 2
Fore
SplineSet
1000 750 m 1
 750 750 l 1
 750 1000 l 1
 1000 1000 l 1
 1000 750 l 1
250 0 m 1
 750 0 l 1
 750 500 l 1
 1000 500 l 1
 1000 0 l 1
 1500 0 l 1
 1500 500 l 1
 1750 500 l 1
 1750 750 l 1
 1500 750 l 1
 1500 1000 l 1
 1750 1000 l 1
 1750 1250 l 1
 1500 1250 l 1
 1500 1750 l 1
 1000 1750 l 1
 1000 1250 l 1
 750 1250 l 1
 750 1750 l 1
 250 1750 l 1
 250 1250 l 1
 0 1250 l 1
 0 1000 l 1
 250 1000 l 1
 250 750 l 1
 0 750 l 1
 0 500 l 1
 250 500 l 1
 250 0 l 1
EndSplineSet
EndChar

StartChar: dollar
Encoding: 36 36 5
Width: 2000
GlyphClass: 1
Flags: W
LayerCount: 2
Fore
SplineSet
1250 500 m 1
 1000 500 l 1
 1000 750 l 1
 1250 750 l 1
 1250 500 l 1
750 1000 m 1
 500 1000 l 1
 500 1250 l 1
 750 1250 l 1
 750 1000 l 1
750 0 m 1
 1000 0 l 1
 1000 250 l 1
 1500 250 l 1
 1500 500 l 1
 1750 500 l 1
 1750 750 l 1
 1500 750 l 1
 1500 1000 l 1
 1000 1000 l 1
 1000 1250 l 1
 1500 1250 l 1
 1500 1500 l 1
 1000 1500 l 1
 1000 1750 l 1
 750 1750 l 1
 750 1500 l 1
 250 1500 l 1
 250 1250 l 1
 0 1250 l 1
 0 1000 l 1
 250 1000 l 1
 250 750 l 1
 750 750 l 1
 750 500 l 1
 250 500 l 1
 250 250 l 1
 750 250 l 1
 750 0 l 1
EndSplineSet
EndChar

StartChar: percent
Encoding: 37 37 6
Width: 2000
GlyphClass: 1
Flags: W
LayerCount: 2
Fore
SplineSet
1500 0 m 1
 1750 0 l 1
 1750 250 l 1
 1500 250 l 1
 1500 0 l 1
1250 250 m 1
 1500 250 l 1
 1500 500 l 1
 1250 500 l 1
 1250 250 l 1
1750 250 m 1
 2000 250 l 1
 2000 500 l 1
 1750 500 l 1
 1750 250 l 1
1500 500 m 1
 1750 500 l 1
 1750 750 l 1
 1500 750 l 1
 1500 500 l 1
250 1000 m 1
 500 1000 l 1
 500 1250 l 1
 250 1250 l 1
 250 1000 l 1
0 1250 m 1
 250 1250 l 1
 250 1500 l 1
 0 1500 l 1
 0 1250 l 1
500 1250 m 1
 750 1250 l 1
 750 1500 l 1
 500 1500 l 1
 500 1250 l 1
250 1500 m 1
 500 1500 l 1
 500 1750 l 1
 250 1750 l 1
 250 1500 l 1
0 0 m 1
 500 0 l 1
 500 250 l 1
 750 250 l 1
 750 500 l 1
 1000 500 l 1
 1000 750 l 1
 1250 750 l 1
 1250 1000 l 1
 1500 1000 l 1
 1500 1250 l 1
 1750 1250 l 1
 1750 1500 l 1
 2000 1500 l 1
 2000 1750 l 1
 1500 1750 l 1
 1500 1500 l 1
 1250 1500 l 1
 1250 1250 l 1
 1000 1250 l 1
 1000 1000 l 1
 750 1000 l 1
 750 750 l 1
 500 750 l 1
 500 500 l 1
 250 500 l 1
 250 250 l 1
 0 250 l 1
 0 0 l 1
EndSplineSet
EndChar

StartChar: ampersand
Encoding: 38 38 7
Width: 2000
GlyphClass: 1
Flags: W
LayerCount: 2
Fore
SplineSet
1250 0 m 1
 1750 0 l 1
 1750 250 l 1
 1250 250 l 1
 1250 0 l 1
750 250 m 1
 500 250 l 1
 500 750 l 1
 750 750 l 1
 750 250 l 1
1500 750 m 1
 1750 750 l 1
 1750 1000 l 1
 1500 1000 l 1
 1500 750 l 1
750 1000 m 1
 500 1000 l 1
 500 1500 l 1
 750 1500 l 1
 750 1000 l 1
250 0 m 1
 1000 0 l 1
 1000 250 l 1
 1250 250 l 1
 1250 500 l 1
 1500 500 l 1
 1500 750 l 1
 1000 750 l 1
 1000 1000 l 1
 1250 1000 l 1
 1250 1500 l 1
 1000 1500 l 1
 1000 1750 l 1
 250 1750 l 1
 250 1500 l 1
 0 1500 l 1
 0 1000 l 1
 250 1000 l 1
 250 750 l 1
 0 750 l 1
 0 250 l 1
 250 250 l 1
 250 0 l 1
EndSplineSet
EndChar

StartChar: quotesingle
Encoding: 39 39 8
Width: 2000
GlyphClass: 1
Flags: W
LayerCount: 2
Fore
SplineSet
1500 1000 m 1
 2000 1000 l 1
 2000 1750 l 1
 1500 1750 l 1
 1500 1000 l 1
EndSplineSet
EndChar

StartChar: parenleft
Encoding: 40 40 9
Width: 2000
GlyphClass: 1
Flags: W
LayerCount: 2
Fore
SplineSet
1250 0 m 1
 1750 0 l 1
 1750 250 l 1
 1500 250 l 1
 1500 1500 l 1
 1750 1500 l 1
 1750 1750 l 1
 1250 1750 l 1
 1250 1500 l 1
 1000 1500 l 1
 1000 250 l 1
 1250 250 l 1
 1250 0 l 1
EndSplineSet
EndChar

StartChar: parenright
Encoding: 41 41 10
Width: 2000
GlyphClass: 1
Flags: W
LayerCount: 2
Fore
SplineSet
1000 0 m 1
 1500 0 l 1
 1500 250 l 1
 1750 250 l 1
 1750 1500 l 1
 1500 1500 l 1
 1500 1750 l 1
 1000 1750 l 1
 1000 1500 l 1
 1250 1500 l 1
 1250 250 l 1
 1000 250 l 1
 1000 0 l 1
EndSplineSet
EndChar

StartChar: asterisk
Encoding: 42 42 11
Width: 2000
GlyphClass: 1
Flags: W
LayerCount: 2
Fore
SplineSet
250 250 m 1
 750 250 l 1
 750 500 l 1
 1000 500 l 1
 1000 250 l 1
 1500 250 l 1
 1500 500 l 1
 1250 500 l 1
 1250 750 l 1
 1750 750 l 1
 1750 1000 l 1
 1250 1000 l 1
 1250 1250 l 1
 1500 1250 l 1
 1500 1500 l 1
 1000 1500 l 1
 1000 1250 l 1
 750 1250 l 1
 750 1500 l 1
 250 1500 l 1
 250 1250 l 1
 500 1250 l 1
 500 1000 l 1
 0 1000 l 1
 0 750 l 1
 500 750 l 1
 500 500 l 1
 250 500 l 1
 250 250 l 1
EndSplineSet
EndChar

StartChar: plus
Encoding: 43 43 12
Width: 2000
GlyphClass: 1
Flags: W
LayerCount: 2
Fore
SplineSet
1000 250 m 1
 1250 250 l 1
 1250 750 l 1
 1750 750 l 1
 1750 1000 l 1
 1250 1000 l 1
 1250 1500 l 1
 1000 1500 l 1
 1000 1000 l 1
 500 1000 l 1
 500 750 l 1
 1000 750 l 1
 1000 250 l 1
EndSplineSet
EndChar

StartChar: comma
Encoding: 44 44 13
Width: 2000
GlyphClass: 1
Flags: W
LayerCount: 2
Fore
SplineSet
1000 -250 m 1
 1250 -250 l 1
 1250 0 l 1
 1000 0 l 1
 1000 -250 l 1
1250 0 m 1
 1500 0 l 1
 1500 750 l 1
 1000 750 l 1
 1000 250 l 1
 1250 250 l 1
 1250 0 l 1
EndSplineSet
EndChar

StartChar: hyphen
Encoding: 45 45 14
Width: 2000
GlyphClass: 1
Flags: W
LayerCount: 2
Fore
SplineSet
500 750 m 1
 2000 750 l 1
 2000 1000 l 1
 500 1000 l 1
 500 750 l 1
EndSplineSet
EndChar

StartChar: period
Encoding: 46 46 15
Width: 2000
GlyphClass: 1
Flags: W
LayerCount: 2
Fore
SplineSet
1000 0 m 1
 1500 0 l 1
 1500 500 l 1
 1000 500 l 1
 1000 0 l 1
EndSplineSet
EndChar

StartChar: slash
Encoding: 47 47 16
Width: 2000
GlyphClass: 1
Flags: W
LayerCount: 2
Fore
SplineSet
0 0 m 1
 500 0 l 1
 500 250 l 1
 750 250 l 1
 750 500 l 1
 1000 500 l 1
 1000 750 l 1
 1250 750 l 1
 1250 1000 l 1
 1500 1000 l 1
 1500 1250 l 1
 1750 1250 l 1
 1750 1500 l 1
 2000 1500 l 1
 2000 1750 l 1
 1500 1750 l 1
 1500 1500 l 1
 1250 1500 l 1
 1250 1250 l 1
 1000 1250 l 1
 1000 1000 l 1
 750 1000 l 1
 750 750 l 1
 500 750 l 1
 500 500 l 1
 250 500 l 1
 250 250 l 1
 0 250 l 1
 0 0 l 1
EndSplineSet
EndChar

StartChar: zero
Encoding: 48 48 17
Width: 2000
GlyphClass: 1
Flags: W
LayerCount: 2
Fore
SplineSet
750 750 m 1
 1000 750 l 1
 1000 1000 l 1
 750 1000 l 1
 750 750 l 1
1250 250 m 1
 500 250 l 1
 500 500 l 1
 750 500 l 1
 750 750 l 1
 500 750 l 1
 500 1500 l 1
 1250 1500 l 1
 1250 1250 l 1
 1000 1250 l 1
 1000 1000 l 1
 1250 1000 l 1
 1250 250 l 1
250 0 m 1
 1500 0 l 1
 1500 250 l 1
 1750 250 l 1
 1750 1500 l 1
 1500 1500 l 1
 1500 1750 l 1
 250 1750 l 1
 250 1500 l 1
 0 1500 l 1
 0 250 l 1
 250 250 l 1
 250 0 l 1
EndSplineSet
EndChar

StartChar: one
Encoding: 49 49 18
Width: 2000
GlyphClass: 1
Flags: W
LayerCount: 2
Fore
SplineSet
500 0 m 1
 2000 0 l 1
 2000 250 l 1
 1500 250 l 1
 1500 1750 l 1
 1000 1750 l 1
 1000 1500 l 1
 500 1500 l 1
 500 1250 l 1
 1000 1250 l 1
 1000 250 l 1
 500 250 l 1
 500 0 l 1
EndSplineSet
EndChar

StartChar: two
Encoding: 50 50 19
Width: 2000
GlyphClass: 1
Flags: W
LayerCount: 2
Fore
SplineSet
0 0 m 1
 1750 0 l 1
 1750 250 l 1
 500 250 l 1
 500 500 l 1
 1000 500 l 1
 1000 750 l 1
 1500 750 l 1
 1500 1000 l 1
 1750 1000 l 1
 1750 1500 l 1
 1500 1500 l 1
 1500 1750 l 1
 250 1750 l 1
 250 1500 l 1
 0 1500 l 1
 0 1250 l 1
 500 1250 l 1
 500 1500 l 1
 1250 1500 l 1
 1250 1000 l 1
 750 1000 l 1
 750 750 l 1
 250 750 l 1
 250 500 l 1
 0 500 l 1
 0 0 l 1
EndSplineSet
EndChar

StartChar: three
Encoding: 51 51 20
Width: 2000
GlyphClass: 1
Flags: W
LayerCount: 2
Fore
SplineSet
250 0 m 1
 1500 0 l 1
 1500 250 l 1
 1750 250 l 1
 1750 750 l 1
 1500 750 l 1
 1500 1000 l 1
 1750 1000 l 1
 1750 1500 l 1
 1500 1500 l 1
 1500 1750 l 1
 250 1750 l 1
 250 1500 l 1
 0 1500 l 1
 0 1250 l 1
 500 1250 l 1
 500 1500 l 1
 1250 1500 l 1
 1250 1000 l 1
 500 1000 l 1
 500 750 l 1
 1250 750 l 1
 1250 250 l 1
 500 250 l 1
 500 500 l 1
 0 500 l 1
 0 250 l 1
 250 250 l 1
 250 0 l 1
EndSplineSet
EndChar

StartChar: four
Encoding: 52 52 21
Width: 2000
GlyphClass: 1
Flags: W
LayerCount: 2
Fore
SplineSet
1000 500 m 1
 500 500 l 1
 500 750 l 1
 750 750 l 1
 750 1000 l 1
 1000 1000 l 1
 1000 500 l 1
1000 0 m 1
 1500 0 l 1
 1500 250 l 1
 1750 250 l 1
 1750 500 l 1
 1500 500 l 1
 1500 1750 l 1
 1000 1750 l 1
 1000 1500 l 1
 750 1500 l 1
 750 1250 l 1
 500 1250 l 1
 500 1000 l 1
 250 1000 l 1
 250 750 l 1
 0 750 l 1
 0 250 l 1
 1000 250 l 1
 1000 0 l 1
EndSplineSet
EndChar

StartChar: five
Encoding: 53 53 22
Width: 2000
GlyphClass: 1
Flags: W
LayerCount: 2
Fore
SplineSet
250 0 m 1
 1500 0 l 1
 1500 250 l 1
 1750 250 l 1
 1750 1000 l 1
 1500 1000 l 1
 1500 1250 l 1
 500 1250 l 1
 500 1500 l 1
 1500 1500 l 1
 1500 1750 l 1
 0 1750 l 1
 0 1000 l 1
 1250 1000 l 1
 1250 250 l 1
 500 250 l 1
 500 500 l 1
 0 500 l 1
 0 250 l 1
 250 250 l 1
 250 0 l 1
EndSplineSet
EndChar

StartChar: six
Encoding: 54 54 23
Width: 2000
GlyphClass: 1
Flags: W
LayerCount: 2
Fore
SplineSet
1250 250 m 1
 500 250 l 1
 500 1000 l 1
 1250 1000 l 1
 1250 250 l 1
250 0 m 1
 1500 0 l 1
 1500 250 l 1
 1750 250 l 1
 1750 1000 l 1
 1500 1000 l 1
 1500 1250 l 1
 500 1250 l 1
 500 1500 l 1
 1500 1500 l 1
 1500 1750 l 1
 250 1750 l 1
 250 1500 l 1
 0 1500 l 1
 0 250 l 1
 250 250 l 1
 250 0 l 1
EndSplineSet
EndChar

StartChar: seven
Encoding: 55 55 24
Width: 2000
GlyphClass: 1
Flags: W
LayerCount: 2
Fore
SplineSet
750 0 m 1
 1250 0 l 1
 1250 750 l 1
 1500 750 l 1
 1500 1250 l 1
 1750 1250 l 1
 1750 1750 l 1
 0 1750 l 1
 0 1250 l 1
 500 1250 l 1
 500 1500 l 1
 1250 1500 l 1
 1250 1250 l 1
 1000 1250 l 1
 1000 750 l 1
 750 750 l 1
 750 0 l 1
EndSplineSet
EndChar

StartChar: eight
Encoding: 56 56 25
Width: 2000
GlyphClass: 1
Flags: W
LayerCount: 2
Fore
SplineSet
1250 250 m 1
 500 250 l 1
 500 750 l 1
 1250 750 l 1
 1250 250 l 1
1250 1000 m 1
 500 1000 l 1
 500 1500 l 1
 1250 1500 l 1
 1250 1000 l 1
250 0 m 1
 1500 0 l 1
 1500 250 l 1
 1750 250 l 1
 1750 750 l 1
 1500 750 l 1
 1500 1000 l 1
 1750 1000 l 1
 1750 1500 l 1
 1500 1500 l 1
 1500 1750 l 1
 250 1750 l 1
 250 1500 l 1
 0 1500 l 1
 0 1000 l 1
 250 1000 l 1
 250 750 l 1
 0 750 l 1
 0 250 l 1
 250 250 l 1
 250 0 l 1
EndSplineSet
EndChar

StartChar: nine
Encoding: 57 57 26
Width: 2000
GlyphClass: 1
Flags: W
LayerCount: 2
Fore
SplineSet
1250 750 m 1
 500 750 l 1
 500 1500 l 1
 1250 1500 l 1
 1250 750 l 1
250 0 m 1
 1500 0 l 1
 1500 250 l 1
 1750 250 l 1
 1750 1500 l 1
 1500 1500 l 1
 1500 1750 l 1
 250 1750 l 1
 250 1500 l 1
 0 1500 l 1
 0 750 l 1
 250 750 l 1
 250 500 l 1
 1250 500 l 1
 1250 250 l 1
 250 250 l 1
 250 0 l 1
EndSplineSet
EndChar

StartChar: colon
Encoding: 58 58 27
Width: 2000
GlyphClass: 1
Flags: W
LayerCount: 2
Fore
SplineSet
1000 0 m 1
 1500 0 l 1
 1500 500 l 1
 1000 500 l 1
 1000 0 l 1
1000 1000 m 1
 1500 1000 l 1
 1500 1500 l 1
 1000 1500 l 1
 1000 1000 l 1
EndSplineSet
EndChar

StartChar: semicolon
Encoding: 59 59 28
Width: 2000
GlyphClass: 1
Flags: W
LayerCount: 2
Fore
SplineSet
1000 -250 m 1
 1250 -250 l 1
 1250 0 l 1
 1000 0 l 1
 1000 -250 l 1
1250 0 m 1
 1500 0 l 1
 1500 750 l 1
 1000 750 l 1
 1000 250 l 1
 1250 250 l 1
 1250 0 l 1
1000 1000 m 1
 1500 1000 l 1
 1500 1500 l 1
 1000 1500 l 1
 1000 1000 l 1
EndSplineSet
EndChar

StartChar: less
Encoding: 60 60 29
Width: 2000
GlyphClass: 1
Flags: W
LayerCount: 2
Fore
SplineSet
1250 0 m 1
 1750 0 l 1
 1750 250 l 1
 1500 250 l 1
 1500 500 l 1
 1250 500 l 1
 1250 750 l 1
 1000 750 l 1
 1000 1000 l 1
 1250 1000 l 1
 1250 1250 l 1
 1500 1250 l 1
 1500 1500 l 1
 1750 1500 l 1
 1750 1750 l 1
 1250 1750 l 1
 1250 1500 l 1
 1000 1500 l 1
 1000 1250 l 1
 750 1250 l 1
 750 1000 l 1
 500 1000 l 1
 500 750 l 1
 750 750 l 1
 750 500 l 1
 1000 500 l 1
 1000 250 l 1
 1250 250 l 1
 1250 0 l 1
EndSplineSet
EndChar

StartChar: equal
Encoding: 61 61 30
Width: 2000
GlyphClass: 1
Flags: W
LayerCount: 2
Fore
SplineSet
500 500 m 1
 2000 500 l 1
 2000 750 l 1
 500 750 l 1
 500 500 l 1
500 1000 m 1
 2000 1000 l 1
 2000 1250 l 1
 500 1250 l 1
 500 1000 l 1
EndSplineSet
EndChar

StartChar: greater
Encoding: 62 62 31
Width: 2000
GlyphClass: 1
Flags: W
LayerCount: 2
Fore
SplineSet
500 0 m 1
 1000 0 l 1
 1000 250 l 1
 1250 250 l 1
 1250 500 l 1
 1500 500 l 1
 1500 750 l 1
 1750 750 l 1
 1750 1000 l 1
 1500 1000 l 1
 1500 1250 l 1
 1250 1250 l 1
 1250 1500 l 1
 1000 1500 l 1
 1000 1750 l 1
 500 1750 l 1
 500 1500 l 1
 750 1500 l 1
 750 1250 l 1
 1000 1250 l 1
 1000 1000 l 1
 1250 1000 l 1
 1250 750 l 1
 1000 750 l 1
 1000 500 l 1
 750 500 l 1
 750 250 l 1
 500 250 l 1
 500 0 l 1
EndSplineSet
EndChar

StartChar: question
Encoding: 63 63 32
Width: 2000
GlyphClass: 1
Flags: W
LayerCount: 2
Fore
SplineSet
1000 0 m 1
 1500 0 l 1
 1500 250 l 1
 1000 250 l 1
 1000 0 l 1
1000 500 m 1
 1500 500 l 1
 1500 750 l 1
 1750 750 l 1
 1750 1000 l 1
 2000 1000 l 1
 2000 1500 l 1
 1750 1500 l 1
 1750 1750 l 1
 750 1750 l 1
 750 1500 l 1
 500 1500 l 1
 500 1250 l 1
 1000 1250 l 1
 1000 1500 l 1
 1500 1500 l 1
 1500 1000 l 1
 1250 1000 l 1
 1250 750 l 1
 1000 750 l 1
 1000 500 l 1
EndSplineSet
EndChar

StartChar: at
Encoding: 64 64 33
Width: 2000
GlyphClass: 1
Flags: W
LayerCount: 2
Fore
SplineSet
750 750 m 1
 1000 750 l 1
 1000 1000 l 1
 750 1000 l 1
 750 750 l 1
250 0 m 1
 1500 0 l 1
 1500 250 l 1
 500 250 l 1
 500 1500 l 1
 1250 1500 l 1
 1250 1250 l 1
 1000 1250 l 1
 1000 1000 l 1
 1250 1000 l 1
 1250 750 l 1
 1000 750 l 1
 1000 500 l 1
 1750 500 l 1
 1750 1500 l 1
 1500 1500 l 1
 1500 1750 l 1
 250 1750 l 1
 250 1500 l 1
 0 1500 l 1
 0 250 l 1
 250 250 l 1
 250 0 l 1
EndSplineSet
EndChar

StartChar: A
Encoding: 65 65 34
Width: 2000
GlyphClass: 1
Flags: W
LayerCount: 2
Fore
SplineSet
1250 500 m 1
 500 500 l 1
 500 1000 l 1
 750 1000 l 1
 750 1500 l 1
 1000 1500 l 1
 1000 1000 l 1
 1250 1000 l 1
 1250 500 l 1
0 0 m 1
 500 0 l 1
 500 250 l 1
 1250 250 l 1
 1250 0 l 1
 1750 0 l 1
 1750 1000 l 1
 1500 1000 l 1
 1500 1500 l 1
 1250 1500 l 1
 1250 1750 l 1
 500 1750 l 1
 500 1500 l 1
 250 1500 l 1
 250 1000 l 1
 0 1000 l 1
 0 0 l 1
EndSplineSet
EndChar

StartChar: B
Encoding: 66 66 35
Width: 2000
GlyphClass: 1
Flags: W
LayerCount: 2
Fore
SplineSet
1250 250 m 1
 500 250 l 1
 500 750 l 1
 1250 750 l 1
 1250 250 l 1
1250 1000 m 1
 500 1000 l 1
 500 1500 l 1
 1250 1500 l 1
 1250 1000 l 1
0 0 m 1
 1500 0 l 1
 1500 250 l 1
 1750 250 l 1
 1750 750 l 1
 1500 750 l 1
 1500 1000 l 1
 1750 1000 l 1
 1750 1500 l 1
 1500 1500 l 1
 1500 1750 l 1
 0 1750 l 1
 0 0 l 1
EndSplineSet
EndChar

StartChar: C
Encoding: 67 67 36
Width: 2000
GlyphClass: 1
Flags: W
LayerCount: 2
Fore
SplineSet
500 0 m 1
 1500 0 l 1
 1500 250 l 1
 1750 250 l 1
 1750 500 l 1
 1250 500 l 1
 1250 250 l 1
 750 250 l 1
 750 500 l 1
 500 500 l 1
 500 1250 l 1
 750 1250 l 1
 750 1500 l 1
 1250 1500 l 1
 1250 1250 l 1
 1750 1250 l 1
 1750 1500 l 1
 1500 1500 l 1
 1500 1750 l 1
 500 1750 l 1
 500 1500 l 1
 250 1500 l 1
 250 1250 l 1
 0 1250 l 1
 0 500 l 1
 250 500 l 1
 250 250 l 1
 500 250 l 1
 500 0 l 1
EndSplineSet
EndChar

StartChar: D
Encoding: 68 68 37
Width: 2000
GlyphClass: 1
Flags: W
LayerCount: 2
Fore
SplineSet
1000 250 m 1
 500 250 l 1
 500 1500 l 1
 1000 1500 l 1
 1000 1250 l 1
 1250 1250 l 1
 1250 500 l 1
 1000 500 l 1
 1000 250 l 1
0 0 m 1
 1250 0 l 1
 1250 250 l 1
 1500 250 l 1
 1500 500 l 1
 1750 500 l 1
 1750 1250 l 1
 1500 1250 l 1
 1500 1500 l 1
 1250 1500 l 1
 1250 1750 l 1
 0 1750 l 1
 0 0 l 1
EndSplineSet
EndChar

StartChar: E
Encoding: 69 69 38
Width: 2000
GlyphClass: 1
Flags: W
LayerCount: 2
Fore
SplineSet
0 0 m 1
 1750 0 l 1
 1750 250 l 1
 500 250 l 1
 500 750 l 1
 1250 750 l 1
 1250 1000 l 1
 500 1000 l 1
 500 1500 l 1
 1750 1500 l 1
 1750 1750 l 1
 0 1750 l 1
 0 0 l 1
EndSplineSet
EndChar

StartChar: F
Encoding: 70 70 39
Width: 2000
GlyphClass: 1
Flags: W
LayerCount: 2
Fore
SplineSet
0 0 m 1
 500 0 l 1
 500 750 l 1
 1250 750 l 1
 1250 1000 l 1
 500 1000 l 1
 500 1500 l 1
 1750 1500 l 1
 1750 1750 l 1
 0 1750 l 1
 0 0 l 1
EndSplineSet
EndChar

StartChar: G
Encoding: 71 71 40
Width: 2000
GlyphClass: 1
Flags: W
LayerCount: 2
Fore
SplineSet
250 0 m 1
 1500 0 l 1
 1500 250 l 1
 1750 250 l 1
 1750 1000 l 1
 1000 1000 l 1
 1000 750 l 1
 1250 750 l 1
 1250 250 l 1
 500 250 l 1
 500 1500 l 1
 1250 1500 l 1
 1250 1250 l 1
 1750 1250 l 1
 1750 1500 l 1
 1500 1500 l 1
 1500 1750 l 1
 250 1750 l 1
 250 1500 l 1
 0 1500 l 1
 0 250 l 1
 250 250 l 1
 250 0 l 1
EndSplineSet
EndChar

StartChar: H
Encoding: 72 72 41
Width: 2000
GlyphClass: 1
Flags: W
LayerCount: 2
Fore
SplineSet
0 0 m 1
 500 0 l 1
 500 750 l 1
 1250 750 l 1
 1250 0 l 1
 1750 0 l 1
 1750 1750 l 1
 1250 1750 l 1
 1250 1000 l 1
 500 1000 l 1
 500 1750 l 1
 0 1750 l 1
 0 0 l 1
EndSplineSet
EndChar

StartChar: I
Encoding: 73 73 42
Width: 2000
GlyphClass: 1
Flags: W
LayerCount: 2
Fore
SplineSet
500 0 m 1
 2000 0 l 1
 2000 250 l 1
 1500 250 l 1
 1500 1500 l 1
 2000 1500 l 1
 2000 1750 l 1
 500 1750 l 1
 500 1500 l 1
 1000 1500 l 1
 1000 250 l 1
 500 250 l 1
 500 0 l 1
EndSplineSet
EndChar

StartChar: J
Encoding: 74 74 43
Width: 2000
GlyphClass: 1
Flags: W
LayerCount: 2
Fore
SplineSet
750 0 m 1
 1750 0 l 1
 1750 250 l 1
 2000 250 l 1
 2000 1750 l 1
 1500 1750 l 1
 1500 250 l 1
 1000 250 l 1
 1000 500 l 1
 500 500 l 1
 500 250 l 1
 750 250 l 1
 750 0 l 1
EndSplineSet
EndChar

StartChar: K
Encoding: 75 75 44
Width: 2000
GlyphClass: 1
Flags: W
LayerCount: 2
Fore
SplineSet
0 0 m 1
 500 0 l 1
 500 750 l 1
 750 750 l 1
 750 500 l 1
 1000 500 l 1
 1000 250 l 1
 1250 250 l 1
 1250 0 l 1
 1750 0 l 1
 1750 250 l 1
 1500 250 l 1
 1500 500 l 1
 1250 500 l 1
 1250 750 l 1
 1000 750 l 1
 1000 1000 l 1
 1250 1000 l 1
 1250 1250 l 1
 1500 1250 l 1
 1500 1500 l 1
 1750 1500 l 1
 1750 1750 l 1
 1250 1750 l 1
 1250 1500 l 1
 1000 1500 l 1
 1000 1250 l 1
 750 1250 l 1
 750 1000 l 1
 500 1000 l 1
 500 1750 l 1
 0 1750 l 1
 0 0 l 1
EndSplineSet
EndChar

StartChar: L
Encoding: 76 76 45
Width: 2000
GlyphClass: 1
Flags: W
LayerCount: 2
Fore
SplineSet
500 0 m 1
 2000 0 l 1
 2000 250 l 1
 1000 250 l 1
 1000 1750 l 1
 500 1750 l 1
 500 0 l 1
EndSplineSet
EndChar

StartChar: M
Encoding: 77 77 46
Width: 2000
GlyphClass: 1
Flags: W
LayerCount: 2
Fore
SplineSet
0 0 m 1
 500 0 l 1
 500 750 l 1
 750 750 l 1
 750 250 l 1
 1000 250 l 1
 1000 750 l 1
 1250 750 l 1
 1250 0 l 1
 1750 0 l 1
 1750 1750 l 1
 1250 1750 l 1
 1250 1500 l 1
 1000 1500 l 1
 1000 1000 l 1
 750 1000 l 1
 750 1500 l 1
 500 1500 l 1
 500 1750 l 1
 0 1750 l 1
 0 0 l 1
EndSplineSet
EndChar

StartChar: N
Encoding: 78 78 47
Width: 2000
GlyphClass: 1
Flags: W
LayerCount: 2
Fore
SplineSet
0 0 m 1
 500 0 l 1
 500 750 l 1
 750 750 l 1
 750 500 l 1
 1000 500 l 1
 1000 250 l 1
 1250 250 l 1
 1250 0 l 1
 1750 0 l 1
 1750 1750 l 1
 1250 1750 l 1
 1250 1000 l 1
 1000 1000 l 1
 1000 1250 l 1
 750 1250 l 1
 750 1500 l 1
 500 1500 l 1
 500 1750 l 1
 0 1750 l 1
 0 0 l 1
EndSplineSet
EndChar

StartChar: O
Encoding: 79 79 48
Width: 2000
GlyphClass: 1
Flags: W
LayerCount: 2
Fore
SplineSet
1250 250 m 1
 500 250 l 1
 500 1500 l 1
 1250 1500 l 1
 1250 250 l 1
250 0 m 1
 1500 0 l 1
 1500 250 l 1
 1750 250 l 1
 1750 1500 l 1
 1500 1500 l 1
 1500 1750 l 1
 250 1750 l 1
 250 1500 l 1
 0 1500 l 1
 0 250 l 1
 250 250 l 1
 250 0 l 1
EndSplineSet
EndChar

StartChar: P
Encoding: 80 80 49
Width: 2000
GlyphClass: 1
Flags: W
LayerCount: 2
Fore
SplineSet
1250 1000 m 1
 500 1000 l 1
 500 1500 l 1
 1250 1500 l 1
 1250 1000 l 1
0 0 m 1
 500 0 l 1
 500 750 l 1
 1500 750 l 1
 1500 1000 l 1
 1750 1000 l 1
 1750 1500 l 1
 1500 1500 l 1
 1500 1750 l 1
 0 1750 l 1
 0 0 l 1
EndSplineSet
EndChar

StartChar: Q
Encoding: 81 81 50
Width: 2000
GlyphClass: 1
Flags: W
LayerCount: 2
Fore
SplineSet
750 250 m 1
 500 250 l 1
 500 500 l 1
 750 500 l 1
 750 250 l 1
1250 500 m 1
 1000 500 l 1
 1000 750 l 1
 500 750 l 1
 500 1500 l 1
 1250 1500 l 1
 1250 500 l 1
1250 -250 m 1
 1750 -250 l 1
 1750 0 l 1
 1500 0 l 1
 1500 250 l 1
 1750 250 l 1
 1750 1500 l 1
 1500 1500 l 1
 1500 1750 l 1
 250 1750 l 1
 250 1500 l 1
 0 1500 l 1
 0 250 l 1
 250 250 l 1
 250 0 l 1
 1250 0 l 1
 1250 -250 l 1
EndSplineSet
EndChar

StartChar: R
Encoding: 82 82 51
Width: 2000
GlyphClass: 1
Flags: W
LayerCount: 2
Fore
SplineSet
1250 1000 m 1
 500 1000 l 1
 500 1500 l 1
 1250 1500 l 1
 1250 1000 l 1
0 0 m 1
 500 0 l 1
 500 750 l 1
 750 750 l 1
 750 500 l 1
 1000 500 l 1
 1000 250 l 1
 1250 250 l 1
 1250 0 l 1
 1750 0 l 1
 1750 250 l 1
 1500 250 l 1
 1500 500 l 1
 1250 500 l 1
 1250 750 l 1
 1500 750 l 1
 1500 1000 l 1
 1750 1000 l 1
 1750 1500 l 1
 1500 1500 l 1
 1500 1750 l 1
 0 1750 l 1
 0 0 l 1
EndSplineSet
EndChar

StartChar: S
Encoding: 83 83 52
Width: 2000
GlyphClass: 1
Flags: W
LayerCount: 2
Fore
SplineSet
250 0 m 1
 1500 0 l 1
 1500 250 l 1
 1750 250 l 1
 1750 750 l 1
 1500 750 l 1
 1500 1000 l 1
 750 1000 l 1
 750 1250 l 1
 500 1250 l 1
 500 1500 l 1
 1250 1500 l 1
 1250 1250 l 1
 1750 1250 l 1
 1750 1500 l 1
 1500 1500 l 1
 1500 1750 l 1
 250 1750 l 1
 250 1500 l 1
 0 1500 l 1
 0 1000 l 1
 250 1000 l 1
 250 750 l 1
 1000 750 l 1
 1000 500 l 1
 1250 500 l 1
 1250 250 l 1
 500 250 l 1
 500 500 l 1
 0 500 l 1
 0 250 l 1
 250 250 l 1
 250 0 l 1
EndSplineSet
EndChar

StartChar: T
Encoding: 84 84 53
Width: 2000
GlyphClass: 1
Flags: W
LayerCount: 2
Fore
SplineSet
1000 0 m 1
 1500 0 l 1
 1500 1500 l 1
 2000 1500 l 1
 2000 1750 l 1
 500 1750 l 1
 500 1500 l 1
 1000 1500 l 1
 1000 0 l 1
EndSplineSet
EndChar

StartChar: U
Encoding: 85 85 54
Width: 2000
GlyphClass: 1
Flags: W
LayerCount: 2
Fore
SplineSet
250 0 m 1
 1500 0 l 1
 1500 250 l 1
 1750 250 l 1
 1750 1750 l 1
 1250 1750 l 1
 1250 250 l 1
 500 250 l 1
 500 1750 l 1
 0 1750 l 1
 0 250 l 1
 250 250 l 1
 250 0 l 1
EndSplineSet
EndChar

StartChar: V
Encoding: 86 86 55
Width: 2000
GlyphClass: 1
Flags: W
LayerCount: 2
Fore
SplineSet
500 0 m 1
 1250 0 l 1
 1250 250 l 1
 1500 250 l 1
 1500 1000 l 1
 1750 1000 l 1
 1750 1750 l 1
 1250 1750 l 1
 1250 1000 l 1
 1000 1000 l 1
 1000 250 l 1
 750 250 l 1
 750 1000 l 1
 500 1000 l 1
 500 1750 l 1
 0 1750 l 1
 0 1000 l 1
 250 1000 l 1
 250 250 l 1
 500 250 l 1
 500 0 l 1
EndSplineSet
EndChar

StartChar: W
Encoding: 87 87 56
Width: 2000
GlyphClass: 1
Flags: W
LayerCount: 2
Fore
SplineSet
250 0 m 1
 750 0 l 1
 750 500 l 1
 1000 500 l 1
 1000 0 l 1
 1500 0 l 1
 1500 500 l 1
 1750 500 l 1
 1750 1750 l 1
 1250 1750 l 1
 1250 750 l 1
 1000 750 l 1
 1000 1500 l 1
 750 1500 l 1
 750 750 l 1
 500 750 l 1
 500 1750 l 1
 0 1750 l 1
 0 500 l 1
 250 500 l 1
 250 0 l 1
EndSplineSet
EndChar

StartChar: X
Encoding: 88 88 57
Width: 2000
GlyphClass: 1
Flags: W
LayerCount: 2
Fore
SplineSet
0 0 m 1
 500 0 l 1
 500 500 l 1
 750 500 l 1
 750 750 l 1
 1000 750 l 1
 1000 500 l 1
 1250 500 l 1
 1250 0 l 1
 1750 0 l 1
 1750 500 l 1
 1500 500 l 1
 1500 750 l 1
 1250 750 l 1
 1250 1000 l 1
 1500 1000 l 1
 1500 1250 l 1
 1750 1250 l 1
 1750 1750 l 1
 1250 1750 l 1
 1250 1250 l 1
 1000 1250 l 1
 1000 1000 l 1
 750 1000 l 1
 750 1250 l 1
 500 1250 l 1
 500 1750 l 1
 0 1750 l 1
 0 1250 l 1
 250 1250 l 1
 250 1000 l 1
 500 1000 l 1
 500 750 l 1
 250 750 l 1
 250 500 l 1
 0 500 l 1
 0 0 l 1
EndSplineSet
EndChar

StartChar: Y
Encoding: 89 89 58
Width: 2000
GlyphClass: 1
Flags: W
LayerCount: 2
Fore
SplineSet
1000 0 m 1
 1500 0 l 1
 1500 750 l 1
 1750 750 l 1
 1750 1000 l 1
 2000 1000 l 1
 2000 1750 l 1
 1500 1750 l 1
 1500 1000 l 1
 1000 1000 l 1
 1000 1750 l 1
 500 1750 l 1
 500 1000 l 1
 750 1000 l 1
 750 750 l 1
 1000 750 l 1
 1000 0 l 1
EndSplineSet
EndChar

StartChar: Z
Encoding: 90 90 59
Width: 2000
GlyphClass: 1
Flags: W
LayerCount: 2
Fore
SplineSet
500 0 m 1
 2000 0 l 1
 2000 250 l 1
 1000 250 l 1
 1000 500 l 1
 1250 500 l 1
 1250 750 l 1
 1500 750 l 1
 1500 1000 l 1
 1750 1000 l 1
 1750 1250 l 1
 2000 1250 l 1
 2000 1750 l 1
 500 1750 l 1
 500 1500 l 1
 1500 1500 l 1
 1500 1250 l 1
 1250 1250 l 1
 1250 1000 l 1
 1000 1000 l 1
 1000 750 l 1
 750 750 l 1
 750 500 l 1
 500 500 l 1
 500 0 l 1
EndSplineSet
EndChar

StartChar: bracketleft
Encoding: 91 91 60
Width: 2000
GlyphClass: 1
Flags: W
LayerCount: 2
Fore
SplineSet
1000 0 m 1
 1750 0 l 1
 1750 250 l 1
 1500 250 l 1
 1500 1500 l 1
 1750 1500 l 1
 1750 1750 l 1
 1000 1750 l 1
 1000 0 l 1
EndSplineSet
EndChar

StartChar: backslash
Encoding: 92 92 61
Width: 2000
GlyphClass: 1
Flags: W
LayerCount: 2
Fore
SplineSet
1500 0 m 1
 2000 0 l 1
 2000 250 l 1
 1750 250 l 1
 1750 500 l 1
 1500 500 l 1
 1500 750 l 1
 1250 750 l 1
 1250 1000 l 1
 1000 1000 l 1
 1000 1250 l 1
 750 1250 l 1
 750 1500 l 1
 500 1500 l 1
 500 1750 l 1
 0 1750 l 1
 0 1500 l 1
 250 1500 l 1
 250 1250 l 1
 500 1250 l 1
 500 1000 l 1
 750 1000 l 1
 750 750 l 1
 1000 750 l 1
 1000 500 l 1
 1250 500 l 1
 1250 250 l 1
 1500 250 l 1
 1500 0 l 1
EndSplineSet
EndChar

StartChar: bracketright
Encoding: 93 93 62
Width: 2000
GlyphClass: 1
Flags: W
LayerCount: 2
Fore
SplineSet
1000 0 m 1
 1750 0 l 1
 1750 1750 l 1
 1000 1750 l 1
 1000 1500 l 1
 1250 1500 l 1
 1250 250 l 1
 1000 250 l 1
 1000 0 l 1
EndSplineSet
EndChar

StartChar: asciicircum
Encoding: 94 94 63
Width: 2000
GlyphClass: 1
Flags: W
LayerCount: 2
Fore
SplineSet
500 1000 m 1
 1000 1000 l 1
 1000 1250 l 1
 1250 1250 l 1
 1250 1000 l 1
 1750 1000 l 1
 1750 1250 l 1
 1500 1250 l 1
 1500 1500 l 1
 1250 1500 l 1
 1250 1750 l 1
 1000 1750 l 1
 1000 1500 l 1
 750 1500 l 1
 750 1250 l 1
 500 1250 l 1
 500 1000 l 1
EndSplineSet
EndChar

StartChar: underscore
Encoding: 95 95 64
Width: 2000
GlyphClass: 1
Flags: W
LayerCount: 2
Fore
SplineSet
0 0 m 1
 1750 0 l 1
 1750 250 l 1
 0 250 l 1
 0 0 l 1
EndSplineSet
EndChar

StartChar: grave
Encoding: 96 96 65
Width: 2000
GlyphClass: 1
Flags: W
LayerCount: 2
Fore
SplineSet
1250 1500 m 1
 1750 1500 l 1
 1750 1750 l 1
 1500 1750 l 1
 1500 2000 l 1
 1000 2000 l 1
 1000 1750 l 1
 1250 1750 l 1
 1250 1500 l 1
EndSplineSet
EndChar

StartChar: a
Encoding: 97 97 66
Width: 2000
GlyphClass: 1
Flags: W
LayerCount: 2
Fore
SplineSet
1250 250 m 1
 500 250 l 1
 500 500 l 1
 1250 500 l 1
 1250 250 l 1
250 0 m 1
 1750 0 l 1
 1750 1000 l 1
 1500 1000 l 1
 1500 1250 l 1
 250 1250 l 1
 250 1000 l 1
 1250 1000 l 1
 1250 750 l 1
 250 750 l 1
 250 500 l 1
 0 500 l 1
 0 250 l 1
 250 250 l 1
 250 0 l 1
EndSplineSet
EndChar

StartChar: b
Encoding: 98 98 67
Width: 2000
GlyphClass: 1
Flags: W
LayerCount: 2
Fore
SplineSet
1250 250 m 1
 500 250 l 1
 500 1000 l 1
 1250 1000 l 1
 1250 250 l 1
0 0 m 1
 1500 0 l 1
 1500 250 l 1
 1750 250 l 1
 1750 1000 l 1
 1500 1000 l 1
 1500 1250 l 1
 500 1250 l 1
 500 1750 l 1
 0 1750 l 1
 0 0 l 1
EndSplineSet
EndChar

StartChar: c
Encoding: 99 99 68
Width: 2000
GlyphClass: 1
Flags: W
LayerCount: 2
Fore
SplineSet
250 0 m 1
 1500 0 l 1
 1500 250 l 1
 1750 250 l 1
 1750 500 l 1
 1250 500 l 1
 1250 250 l 1
 500 250 l 1
 500 1000 l 1
 1250 1000 l 1
 1250 750 l 1
 1750 750 l 1
 1750 1000 l 1
 1500 1000 l 1
 1500 1250 l 1
 250 1250 l 1
 250 1000 l 1
 0 1000 l 1
 0 250 l 1
 250 250 l 1
 250 0 l 1
EndSplineSet
EndChar

StartChar: d
Encoding: 100 100 69
Width: 2000
GlyphClass: 1
Flags: W
LayerCount: 2
Fore
SplineSet
1250 250 m 1
 500 250 l 1
 500 1000 l 1
 1250 1000 l 1
 1250 250 l 1
250 0 m 1
 1750 0 l 1
 1750 1750 l 1
 1250 1750 l 1
 1250 1250 l 1
 250 1250 l 1
 250 1000 l 1
 0 1000 l 1
 0 250 l 1
 250 250 l 1
 250 0 l 1
EndSplineSet
EndChar

StartChar: e
Encoding: 101 101 70
Width: 2000
GlyphClass: 1
Flags: W
LayerCount: 2
Fore
SplineSet
1250 750 m 1
 500 750 l 1
 500 1000 l 1
 1250 1000 l 1
 1250 750 l 1
250 0 m 1
 1500 0 l 1
 1500 250 l 1
 500 250 l 1
 500 500 l 1
 1750 500 l 1
 1750 1000 l 1
 1500 1000 l 1
 1500 1250 l 1
 250 1250 l 1
 250 1000 l 1
 0 1000 l 1
 0 250 l 1
 250 250 l 1
 250 0 l 1
EndSplineSet
EndChar

StartChar: f
Encoding: 102 102 71
Width: 2000
GlyphClass: 1
Flags: W
LayerCount: 2
Fore
SplineSet
500 0 m 1
 1000 0 l 1
 1000 1000 l 1
 1500 1000 l 1
 1500 1250 l 1
 1000 1250 l 1
 1000 1500 l 1
 1750 1500 l 1
 1750 1750 l 1
 750 1750 l 1
 750 1500 l 1
 500 1500 l 1
 500 1250 l 1
 0 1250 l 1
 0 1000 l 1
 500 1000 l 1
 500 0 l 1
EndSplineSet
EndChar

StartChar: g
Encoding: 103 103 72
Width: 2000
GlyphClass: 1
Flags: W
LayerCount: 2
Fore
SplineSet
1250 500 m 1
 500 500 l 1
 500 1000 l 1
 1250 1000 l 1
 1250 500 l 1
250 -250 m 1
 1500 -250 l 1
 1500 0 l 1
 1750 0 l 1
 1750 1250 l 1
 250 1250 l 1
 250 1000 l 1
 0 1000 l 1
 0 500 l 1
 250 500 l 1
 250 250 l 1
 1250 250 l 1
 1250 0 l 1
 250 0 l 1
 250 -250 l 1
EndSplineSet
EndChar

StartChar: h
Encoding: 104 104 73
Width: 2000
GlyphClass: 1
Flags: W
LayerCount: 2
Fore
SplineSet
0 0 m 1
 500 0 l 1
 500 1000 l 1
 1250 1000 l 1
 1250 0 l 1
 1750 0 l 1
 1750 1000 l 1
 1500 1000 l 1
 1500 1250 l 1
 500 1250 l 1
 500 1750 l 1
 0 1750 l 1
 0 0 l 1
EndSplineSet
EndChar

StartChar: i
Encoding: 105 105 74
Width: 2000
GlyphClass: 1
Flags: W
LayerCount: 2
Fore
SplineSet
500 0 m 1
 2000 0 l 1
 2000 250 l 1
 1500 250 l 1
 1500 1250 l 1
 500 1250 l 1
 500 1000 l 1
 1000 1000 l 1
 1000 250 l 1
 500 250 l 1
 500 0 l 1
1000 1500 m 1
 1500 1500 l 1
 1500 1750 l 1
 1000 1750 l 1
 1000 1500 l 1
EndSplineSet
EndChar

StartChar: j
Encoding: 106 106 75
Width: 2000
GlyphClass: 1
Flags: W
LayerCount: 2
Fore
SplineSet
750 -250 m 1
 1750 -250 l 1
 1750 0 l 1
 2000 0 l 1
 2000 1250 l 1
 1000 1250 l 1
 1000 1000 l 1
 1500 1000 l 1
 1500 0 l 1
 1000 0 l 1
 1000 250 l 1
 500 250 l 1
 500 0 l 1
 750 0 l 1
 750 -250 l 1
1500 1500 m 1
 2000 1500 l 1
 2000 1750 l 1
 1500 1750 l 1
 1500 1500 l 1
EndSplineSet
EndChar

StartChar: k
Encoding: 107 107 76
Width: 2000
GlyphClass: 1
Flags: W
LayerCount: 2
Fore
SplineSet
500 0 m 1
 1000 0 l 1
 1000 500 l 1
 1250 500 l 1
 1250 250 l 1
 1500 250 l 1
 1500 0 l 1
 2000 0 l 1
 2000 250 l 1
 1750 250 l 1
 1750 500 l 1
 1500 500 l 1
 1500 750 l 1
 1750 750 l 1
 1750 1000 l 1
 2000 1000 l 1
 2000 1250 l 1
 1500 1250 l 1
 1500 1000 l 1
 1250 1000 l 1
 1250 750 l 1
 1000 750 l 1
 1000 1750 l 1
 500 1750 l 1
 500 0 l 1
EndSplineSet
EndChar

StartChar: l
Encoding: 108 108 77
Width: 2000
GlyphClass: 1
Flags: W
LayerCount: 2
Fore
SplineSet
500 0 m 1
 2000 0 l 1
 2000 250 l 1
 1500 250 l 1
 1500 1750 l 1
 500 1750 l 1
 500 1500 l 1
 1000 1500 l 1
 1000 250 l 1
 500 250 l 1
 500 0 l 1
EndSplineSet
EndChar

StartChar: m
Encoding: 109 109 78
Width: 2108
GlyphClass: 1
Flags: WO
LayerCount: 2
Fore
SplineSet
0 0 m 1
 500 0 l 1
 500 1000 l 1
 882 997 l 1
 900 247 l 1
 1296 265 l 1
 1296 991 l 1
 1758 979 l 1
 1788 0 l 1
 2310 0 l 1
 2286 997 l 1
 1998 1003 l 1
 1992 1225 l 1
 0 1250 l 1
 0 0 l 1
EndSplineSet
EndChar

StartChar: n
Encoding: 110 110 79
Width: 2000
GlyphClass: 1
Flags: W
LayerCount: 2
Fore
SplineSet
0 0 m 1
 500 0 l 1
 500 1000 l 1
 1250 1000 l 1
 1250 0 l 1
 1750 0 l 1
 1750 1000 l 1
 1500 1000 l 1
 1500 1250 l 1
 0 1250 l 1
 0 0 l 1
EndSplineSet
EndChar

StartChar: o
Encoding: 111 111 80
Width: 2000
GlyphClass: 1
Flags: W
LayerCount: 2
Fore
SplineSet
1250 250 m 1
 500 250 l 1
 500 1000 l 1
 1250 1000 l 1
 1250 250 l 1
250 0 m 1
 1500 0 l 1
 1500 250 l 1
 1750 250 l 1
 1750 1000 l 1
 1500 1000 l 1
 1500 1250 l 1
 250 1250 l 1
 250 1000 l 1
 0 1000 l 1
 0 250 l 1
 250 250 l 1
 250 0 l 1
EndSplineSet
EndChar

StartChar: p
Encoding: 112 112 81
Width: 2000
GlyphClass: 1
Flags: W
LayerCount: 2
Fore
SplineSet
1250 500 m 1
 500 500 l 1
 500 1000 l 1
 1250 1000 l 1
 1250 500 l 1
0 -250 m 1
 500 -250 l 1
 500 250 l 1
 1500 250 l 1
 1500 500 l 1
 1750 500 l 1
 1750 1000 l 1
 1500 1000 l 1
 1500 1250 l 1
 0 1250 l 1
 0 -250 l 1
EndSplineSet
EndChar

StartChar: q
Encoding: 113 113 82
Width: 2000
GlyphClass: 1
Flags: W
LayerCount: 2
Fore
SplineSet
1250 500 m 1
 500 500 l 1
 500 1000 l 1
 1250 1000 l 1
 1250 500 l 1
1250 -250 m 1
 1750 -250 l 1
 1750 1250 l 1
 250 1250 l 1
 250 1000 l 1
 0 1000 l 1
 0 500 l 1
 250 500 l 1
 250 250 l 1
 1250 250 l 1
 1250 -250 l 1
EndSplineSet
EndChar

StartChar: r
Encoding: 114 114 83
Width: 2000
GlyphClass: 1
Flags: W
LayerCount: 2
Fore
SplineSet
500 0 m 1
 1000 0 l 1
 1000 750 l 1
 1250 750 l 1
 1250 1000 l 1
 1000 1000 l 1
 1000 1250 l 1
 500 1250 l 1
 500 0 l 1
1250 1000 m 1
 2000 1000 l 1
 2000 1250 l 1
 1250 1250 l 1
 1250 1000 l 1
EndSplineSet
EndChar

StartChar: s
Encoding: 115 115 84
Width: 2000
GlyphClass: 1
Flags: W
LayerCount: 2
Fore
SplineSet
250 0 m 1
 1500 0 l 1
 1500 250 l 1
 1750 250 l 1
 1750 500 l 1
 1500 500 l 1
 1500 750 l 1
 500 750 l 1
 500 1000 l 1
 1500 1000 l 1
 1500 1250 l 1
 250 1250 l 1
 250 1000 l 1
 0 1000 l 1
 0 750 l 1
 250 750 l 1
 250 500 l 1
 1250 500 l 1
 1250 250 l 1
 250 250 l 1
 250 0 l 1
EndSplineSet
EndChar

StartChar: t
Encoding: 116 116 85
Width: 2000
GlyphClass: 1
Flags: W
LayerCount: 2
Fore
SplineSet
1000 0 m 1
 1750 0 l 1
 1750 250 l 1
 2000 250 l 1
 2000 500 l 1
 1500 500 l 1
 1500 250 l 1
 1250 250 l 1
 1250 1000 l 1
 1750 1000 l 1
 1750 1250 l 1
 1250 1250 l 1
 1250 1750 l 1
 1000 1750 l 1
 1000 1500 l 1
 750 1500 l 1
 750 1250 l 1
 500 1250 l 1
 500 1000 l 1
 750 1000 l 1
 750 250 l 1
 1000 250 l 1
 1000 0 l 1
EndSplineSet
EndChar

StartChar: u
Encoding: 117 117 86
Width: 2000
GlyphClass: 1
Flags: W
LayerCount: 2
Fore
SplineSet
250 0 m 1
 1750 0 l 1
 1750 1250 l 1
 1250 1250 l 1
 1250 250 l 1
 500 250 l 1
 500 1250 l 1
 0 1250 l 1
 0 250 l 1
 250 250 l 1
 250 0 l 1
EndSplineSet
EndChar

StartChar: v
Encoding: 118 118 87
Width: 2000
GlyphClass: 1
Flags: W
LayerCount: 2
Fore
SplineSet
500 0 m 1
 1250 0 l 1
 1250 250 l 1
 1500 250 l 1
 1500 750 l 1
 1750 750 l 1
 1750 1250 l 1
 1250 1250 l 1
 1250 750 l 1
 1000 750 l 1
 1000 250 l 1
 750 250 l 1
 750 750 l 1
 500 750 l 1
 500 1250 l 1
 0 1250 l 1
 0 750 l 1
 250 750 l 1
 250 250 l 1
 500 250 l 1
 500 0 l 1
EndSplineSet
EndChar

StartChar: w
Encoding: 119 119 88
Width: 2000
GlyphClass: 1
Flags: W
LayerCount: 2
Fore
SplineSet
250 0 m 1
 750 0 l 1
 750 250 l 1
 1000 250 l 1
 1000 0 l 1
 1500 0 l 1
 1500 250 l 1
 1750 250 l 1
 1750 1250 l 1
 1250 1250 l 1
 1250 500 l 1
 1000 500 l 1
 1000 1000 l 1
 750 1000 l 1
 750 500 l 1
 500 500 l 1
 500 1250 l 1
 0 1250 l 1
 0 250 l 1
 250 250 l 1
 250 0 l 1
EndSplineSet
EndChar

StartChar: x
Encoding: 120 120 89
Width: 2000
GlyphClass: 1
Flags: W
LayerCount: 2
Fore
SplineSet
0 0 m 1
 500 0 l 1
 500 250 l 1
 750 250 l 1
 750 500 l 1
 1000 500 l 1
 1000 250 l 1
 1250 250 l 1
 1250 0 l 1
 1750 0 l 1
 1750 250 l 1
 1500 250 l 1
 1500 500 l 1
 1250 500 l 1
 1250 750 l 1
 1500 750 l 1
 1500 1000 l 1
 1750 1000 l 1
 1750 1250 l 1
 1250 1250 l 1
 1250 1000 l 1
 1000 1000 l 1
 1000 750 l 1
 750 750 l 1
 750 1000 l 1
 500 1000 l 1
 500 1250 l 1
 0 1250 l 1
 0 1000 l 1
 250 1000 l 1
 250 750 l 1
 500 750 l 1
 500 500 l 1
 250 500 l 1
 250 250 l 1
 0 250 l 1
 0 0 l 1
EndSplineSet
EndChar

StartChar: y
Encoding: 121 121 90
Width: 2000
GlyphClass: 1
Flags: W
LayerCount: 2
Fore
SplineSet
0 -250 m 1
 750 -250 l 1
 750 0 l 1
 1000 0 l 1
 1000 250 l 1
 1250 250 l 1
 1250 500 l 1
 1500 500 l 1
 1500 750 l 1
 1750 750 l 1
 1750 1250 l 1
 1250 1250 l 1
 1250 750 l 1
 1000 750 l 1
 1000 500 l 1
 750 500 l 1
 750 750 l 1
 500 750 l 1
 500 1250 l 1
 0 1250 l 1
 0 750 l 1
 250 750 l 1
 250 500 l 1
 500 500 l 1
 500 0 l 1
 0 0 l 1
 0 -250 l 1
EndSplineSet
EndChar

StartChar: z
Encoding: 122 122 91
Width: 2000
GlyphClass: 1
Flags: W
LayerCount: 2
Fore
SplineSet
500 0 m 1
 2000 0 l 1
 2000 250 l 1
 1000 250 l 1
 1000 500 l 1
 500 500 l 1
 500 0 l 1
1000 500 m 1
 1500 500 l 1
 1500 750 l 1
 1000 750 l 1
 1000 500 l 1
1500 750 m 1
 2000 750 l 1
 2000 1250 l 1
 500 1250 l 1
 500 1000 l 1
 1500 1000 l 1
 1500 750 l 1
EndSplineSet
EndChar

StartChar: braceleft
Encoding: 123 123 92
Width: 2000
GlyphClass: 1
Flags: W
LayerCount: 2
Fore
SplineSet
1500 0 m 1
 2000 0 l 1
 2000 250 l 1
 1750 250 l 1
 1750 750 l 1
 1500 750 l 1
 1500 1000 l 1
 1750 1000 l 1
 1750 1500 l 1
 2000 1500 l 1
 2000 1750 l 1
 1500 1750 l 1
 1500 1500 l 1
 1250 1500 l 1
 1250 1000 l 1
 1000 1000 l 1
 1000 750 l 1
 1250 750 l 1
 1250 250 l 1
 1500 250 l 1
 1500 0 l 1
EndSplineSet
EndChar

StartChar: bar
Encoding: 124 124 93
Width: 2000
GlyphClass: 1
Flags: W
LayerCount: 2
Fore
SplineSet
1500 -250 m 1
 1750 -250 l 1
 1750 1750 l 1
 1500 1750 l 1
 1500 -250 l 1
EndSplineSet
EndChar

StartChar: braceright
Encoding: 125 125 94
Width: 2000
GlyphClass: 1
Flags: W
LayerCount: 2
Fore
SplineSet
1000 0 m 1
 1500 0 l 1
 1500 250 l 1
 1750 250 l 1
 1750 750 l 1
 2000 750 l 1
 2000 1000 l 1
 1750 1000 l 1
 1750 1500 l 1
 1500 1500 l 1
 1500 1750 l 1
 1000 1750 l 1
 1000 1500 l 1
 1250 1500 l 1
 1250 1000 l 1
 1500 1000 l 1
 1500 750 l 1
 1250 750 l 1
 1250 250 l 1
 1000 250 l 1
 1000 0 l 1
EndSplineSet
EndChar

StartChar: asciitilde
Encoding: 126 126 95
Width: 2000
GlyphClass: 1
Flags: W
LayerCount: 2
Fore
SplineSet
500 750 m 1
 750 750 l 1
 750 1000 l 1
 500 1000 l 1
 500 750 l 1
1250 750 m 1
 1750 750 l 1
 1750 1000 l 1
 1250 1000 l 1
 1250 750 l 1
750 1000 m 1
 1250 1000 l 1
 1250 1250 l 1
 750 1250 l 1
 750 1000 l 1
1750 1000 m 1
 2000 1000 l 1
 2000 1250 l 1
 1750 1250 l 1
 1750 1000 l 1
EndSplineSet
EndChar

StartChar: exclamdown
Encoding: 161 161 97
Width: 2000
GlyphClass: 1
Flags: W
LayerCount: 2
Fore
SplineSet
1250 -250 m 1
 1750 -250 l 1
 1750 0 l 1
 2000 0 l 1
 2000 500 l 1
 1750 500 l 1
 1750 1000 l 1
 1250 1000 l 1
 1250 500 l 1
 1000 500 l 1
 1000 0 l 1
 1250 0 l 1
 1250 -250 l 1
1250 1250 m 1
 1750 1250 l 1
 1750 1500 l 1
 1250 1500 l 1
 1250 1250 l 1
EndSplineSet
EndChar

StartChar: uniAD
Encoding: 173 173 98
Width: 2000
GlyphClass: 1
Flags: W
LayerCount: 2
Fore
SplineSet
500 750 m 1
 2000 750 l 1
 2000 1000 l 1
 500 1000 l 1
 500 750 l 1
EndSplineSet
EndChar

StartChar: questiondown
Encoding: 191 191 99
Width: 2000
GlyphClass: 1
Flags: W
LayerCount: 2
Fore
SplineSet
750 -250 m 1
 1750 -250 l 1
 1750 0 l 1
 2000 0 l 1
 2000 250 l 1
 1500 250 l 1
 1500 0 l 1
 1000 0 l 1
 1000 500 l 1
 1250 500 l 1
 1250 750 l 1
 1500 750 l 1
 1500 1000 l 1
 1000 1000 l 1
 1000 750 l 1
 750 750 l 1
 750 500 l 1
 500 500 l 1
 500 0 l 1
 750 0 l 1
 750 -250 l 1
1000 1250 m 1
 1500 1250 l 1
 1500 1500 l 1
 1000 1500 l 1
 1000 1250 l 1
EndSplineSet
EndChar

StartChar: quoteleft
Encoding: 8216 8216 100
Width: 2000
GlyphClass: 1
Flags: W
LayerCount: 2
Fore
SplineSet
1500 750 m 1
 2000 750 l 1
 2000 1250 l 1
 1750 1250 l 1
 1750 1500 l 1
 1500 1500 l 1
 1500 750 l 1
1750 1500 m 1
 2000 1500 l 1
 2000 1750 l 1
 1750 1750 l 1
 1750 1500 l 1
EndSplineSet
EndChar

StartChar: quoteright
Encoding: 8217 8217 101
Width: 2000
GlyphClass: 1
Flags: W
LayerCount: 2
Fore
SplineSet
1500 750 m 1
 1750 750 l 1
 1750 1000 l 1
 1500 1000 l 1
 1500 750 l 1
1750 1000 m 1
 2000 1000 l 1
 2000 1750 l 1
 1500 1750 l 1
 1500 1250 l 1
 1750 1250 l 1
 1750 1000 l 1
EndSplineSet
EndChar

StartChar: quotedblleft
Encoding: 8220 8220 102
Width: 2000
GlyphClass: 1
Flags: W
LayerCount: 2
Fore
SplineSet
500 750 m 1
 1000 750 l 1
 1000 1250 l 1
 750 1250 l 1
 750 1500 l 1
 500 1500 l 1
 500 750 l 1
1250 750 m 1
 1750 750 l 1
 1750 1250 l 1
 1500 1250 l 1
 1500 1500 l 1
 1250 1500 l 1
 1250 750 l 1
750 1500 m 1
 1000 1500 l 1
 1000 1750 l 1
 750 1750 l 1
 750 1500 l 1
1500 1500 m 1
 1750 1500 l 1
 1750 1750 l 1
 1500 1750 l 1
 1500 1500 l 1
EndSplineSet
EndChar

StartChar: quotedblright
Encoding: 8221 8221 103
Width: 2000
GlyphClass: 1
Flags: W
LayerCount: 2
Fore
SplineSet
500 750 m 1
 750 750 l 1
 750 1000 l 1
 500 1000 l 1
 500 750 l 1
1250 750 m 1
 1500 750 l 1
 1500 1000 l 1
 1250 1000 l 1
 1250 750 l 1
750 1000 m 1
 1000 1000 l 1
 1000 1750 l 1
 500 1750 l 1
 500 1250 l 1
 750 1250 l 1
 750 1000 l 1
1500 1000 m 1
 1750 1000 l 1
 1750 1750 l 1
 1250 1750 l 1
 1250 1250 l 1
 1500 1250 l 1
 1500 1000 l 1
EndSplineSet
EndChar
